<svg width="1440" height="344" viewBox="0 0 1440 344" version="1.1" xmlns="http://www.w3.org/2000/svg" xmlns:xlink="http://www.w3.org/1999/xlink">
<title>Background</title>
<desc>Initiate Section Background</desc>
<g id="Canvas" transform="translate(-18826 -6970)">
<g id="Bg">
<mask id="mask0_alpha" mask-type="alpha">
<g id="Rectangle 2">
<use xlink:href="#path0_fill" transform="translate(18826 6970)" fill="#BD0107"/>
</g>
</mask>
<g id="Rectangle 2.1" mask="url(#mask0_alpha)">
<use xlink:href="#path0_fill" transform="translate(18826 6970)" fill="#3D3948"/>
<use xlink:href="#path0_fill" transform="translate(18826 6970)" fill="url(#paint2_linear)"/>
</g>
<g id="Vector" mask="url(#mask0_alpha)">
<use xlink:href="#path1_fill" transform="translate(18627 6562)" fill="#464152"/>
<use xlink:href="#path2_fill" transform="translate(18627 6562)" fill="#464152"/>
<use xlink:href="#path3_fill" transform="translate(18627 6562)" fill="#464152"/>
<use xlink:href="#path4_fill" transform="translate(18627 6562)" fill="#464152"/>
<use xlink:href="#path5_fill" transform="translate(18627 6562)" fill="#464152"/>
<use xlink:href="#path6_fill" transform="translate(18627 6562)" fill="#464152"/>
<use xlink:href="#path7_fill" transform="translate(18627 6562)" fill="#464152"/>
<use xlink:href="#path8_fill" transform="translate(18627 6562)" fill="#464152"/>
<use xlink:href="#path9_fill" transform="translate(18627 6562)" fill="#464152"/>
<use xlink:href="#path10_fill" transform="translate(18627 6562)" fill="#464152"/>
<use xlink:href="#path11_fill" transform="translate(18627 6562)" fill="#464152"/>
<use xlink:href="#path12_fill" transform="translate(18627 6562)" fill="#464152"/>
<use xlink:href="#path13_fill" transform="translate(18627 6562)" fill="#464152"/>
<use xlink:href="#path14_fill" transform="translate(18627 6562)" fill="#464152"/>
<use xlink:href="#path15_fill" transform="translate(18627 6562)" fill="#464152"/>
<use xlink:href="#path16_fill" transform="translate(18627 6562)" fill="#464152"/>
<use xlink:href="#path17_fill" transform="translate(18627 6562)" fill="#464152"/>
<use xlink:href="#path18_fill" transform="translate(18627 6562)" fill="#464152"/>
<use xlink:href="#path19_fill" transform="translate(18627 6562)" fill="#464152"/>
<use xlink:href="#path20_fill" transform="translate(18627 6562)" fill="#464152"/>
<use xlink:href="#path21_fill" transform="translate(18627 6562)" fill="#464152"/>
<use xlink:href="#path22_fill" transform="translate(18627 6562)" fill="#464152"/>
<use xlink:href="#path23_fill" transform="translate(18627 6562)" fill="#464152"/>
<use xlink:href="#path24_fill" transform="translate(18627 6562)" fill="#464152"/>
<use xlink:href="#path25_fill" transform="translate(18627 6562)" fill="#464152"/>
<use xlink:href="#path26_fill" transform="translate(18627 6562)" fill="#464152"/>
<use xlink:href="#path27_fill" transform="translate(18627 6562)" fill="#464152"/>
<use xlink:href="#path28_fill" transform="translate(18627 6562)" fill="#464152"/>
<use xlink:href="#path29_fill" transform="translate(18627 6562)" fill="#464152"/>
<use xlink:href="#path30_fill" transform="translate(18627 6562)" fill="#464152"/>
<use xlink:href="#path31_fill" transform="translate(18627 6562)" fill="#464152"/>
<use xlink:href="#path32_fill" transform="translate(18627 6562)" fill="#464152"/>
<use xlink:href="#path33_fill" transform="translate(18627 6562)" fill="#464152"/>
<use xlink:href="#path34_fill" transform="translate(18627 6562)" fill="#464152"/>
<use xlink:href="#path35_fill" transform="translate(18627 6562)" fill="#464152"/>
<use xlink:href="#path36_fill" transform="translate(18627 6562)" fill="#464152"/>
<use xlink:href="#path37_fill" transform="translate(18627 6562)" fill="#464152"/>
<use xlink:href="#path38_fill" transform="translate(18627 6562)" fill="#464152"/>
<use xlink:href="#path39_fill" transform="translate(18627 6562)" fill="#464152"/>
</g>
</g>
</g>
<defs>
<linearGradient id="paint2_linear" x1="0" y1="0" x2="1" y2="0" gradientUnits="userSpaceOnUse" gradientTransform="matrix(8.81746e-14 344 -1440 2.10639e-14 1440 -2.10639e-14)">
<stop offset="0" stop-color="#3C3847"/>
<stop offset="1" stop-color="#464152"/>
</linearGradient>
<path id="path0_fill" d="M 0 0L 1440 0L 1440 344L 0 344L 0 0Z"/>
<path id="path1_fill" d="M 72.0547 636.222C 76.7336 671.79 107.614 697.062 157.21 697.062C 183.412 697.062 217.1 687.702 233.944 670.854L 278.861 715.782C 248.916 746.67 199.32 761.647 156.274 761.647C 58.018 761.647 0 700.806 0 610.013C 0 522.965 58.9538 461.189 151.596 461.189C 247.045 461.189 306.934 520.157 295.705 637.158L 72.0547 637.158L 72.0547 636.222ZM 227.393 577.253C 222.715 539.813 193.705 522.029 153.467 522.029C 115.1 522.029 84.2197 540.749 73.9262 577.253L 227.393 577.253Z"/>
<path id="path2_fill" d="M 1208.09 468.675L 1275.46 468.675L 1275.46 753.221L 1209.02 753.221L 1205.28 711.101C 1189.37 744.797 1144.45 760.709 1112.64 761.645C 1028.42 762.581 965.72 710.165 965.72 610.012C 965.72 511.732 1031.22 460.251 1114.51 461.187C 1152.87 461.187 1189.37 478.971 1205.28 507.052L 1208.09 468.675ZM 1037.77 610.948C 1037.77 665.237 1075.21 697.997 1121.99 697.997C 1233.35 697.997 1233.35 524.836 1121.99 524.836C 1075.21 523.9 1037.77 555.724 1037.77 610.948Z"/>
<path id="path3_fill" d="M 1386.82 468.677L 1392.43 501.437C 1413.96 465.869 1443.9 461.189 1472.91 461.189C 1501.92 461.189 1530.93 472.421 1545.9 488.333L 1514.08 549.173C 1500.05 537.005 1486.01 530.453 1463.55 530.453C 1426.12 530.453 1392.43 550.109 1392.43 602.525L 1392.43 753.222L 1322.25 753.222L 1322.25 468.677L 1386.82 468.677Z"/>
<path id="path4_fill" d="M 1853.77 348.868L 1853.77 753.222L 1788.27 753.222L 1783.59 713.91C 1762.07 747.606 1726.51 759.774 1691.88 759.774C 1607.66 759.774 1544.97 704.55 1544.97 610.95C 1544.97 512.669 1606.73 462.125 1690.01 462.125C 1719.96 462.125 1766.74 478.037 1783.59 507.989L 1783.59 348.868L 1853.77 348.868ZM 1615.15 610.95C 1615.15 660.558 1650.71 695.19 1696.56 695.19C 1741.48 695.19 1778.91 662.43 1778.91 610.95C 1778.91 561.341 1740.54 527.645 1696.56 527.645C 1650.71 527.645 1615.15 559.469 1615.15 610.95Z"/>
<path id="path5_fill" d="M 943.261 156.986L 932.968 135.458L 1379.33 152.306L 943.261 156.986Z"/>
<path id="path6_fill" d="M 943.261 156.986L 932.968 168.219L 1379.33 153.243L 1379.33 152.306L 943.261 156.986Z"/>
<path id="path7_fill" d="M 908.129 14.4171L 932.968 135.458L 935.775 135.458L 1379.33 152.306L 1010.46 0L 908.129 14.4171Z"/>
<path id="path8_fill" d="M 906.073 299.268L 1013.47 314.398L 1379.33 153.243L 932.968 168.219L 906.073 299.268Z"/>
<path id="path9_fill" d="M 1855.64 156.986L 1865.94 135.458L 1419.57 152.306L 1855.64 156.986Z"/>
<path id="path10_fill" d="M 1855.64 156.986L 1865.94 168.219L 1419.57 153.243L 1419.57 152.306L 1855.64 156.986Z"/>
<path id="path11_fill" d="M 1890.65 15.3335L 1786.76 0.696977L 1419.57 152.306L 1863.13 136.395L 1865.94 136.395L 1890.65 15.3335Z"/>
<path id="path12_fill" d="M 1892.69 299.287L 1865.94 168.219L 1419.57 153.243L 1785.43 314.398L 1892.69 299.287Z"/>
<path id="path13_fill" fill-rule="evenodd" d="M 560.529 361.852L 630.712 386.438L 630.712 753.222L 565.207 753.222L 560.529 713.91C 539.005 747.607 503.445 759.774 468.822 759.774C 384.602 759.774 321.906 704.55 321.906 610.95C 321.906 512.669 383.668 462.125 466.951 462.125C 496.895 462.125 543.684 478.037 560.529 507.989L 560.529 361.852ZM 472.567 695.19C 427.649 695.19 392.089 660.558 392.089 610.95C 392.089 559.469 427.649 527.646 472.567 527.646C 516.548 527.646 554.913 561.341 554.913 610.95C 554.913 662.43 517.482 695.19 472.567 695.19Z"/>
<path id="path14_fill" fill-rule="evenodd" d="M 888.023 457.32L 952.748 479.993L 921.739 519.22C 943.26 544.492 951.683 572.572 951.683 603.461C 951.683 639.03 938.581 688.638 891.792 710.165C 939.518 733.565 950.746 768.199 950.746 804.702C 950.746 883.326 890.858 932 807.572 932C 725.226 932 663.464 881.454 663.464 804.702L 733.647 804.702C 733.647 842.143 767.336 866.48 808.509 866.48C 848.748 866.48 880.563 844.951 880.563 804.702C 880.563 765.391 843.132 747.605 808.509 747.605C 719.61 747.605 664.401 693.318 664.401 604.398C 664.401 515.477 728.968 460.252 808.509 460.252C 830.967 460.252 854.361 463.06 874.013 476.163L 888.023 457.32ZM 808.509 683.022C 767.336 683.022 733.647 653.07 733.647 603.461C 733.647 553.852 766.399 522.964 808.509 522.964C 848.748 522.964 882.434 553.852 882.434 603.461C 882.434 653.07 848.748 683.022 808.509 683.022Z"/>
<path id="path15_fill" d="M 981.33 928.382L 973.452 928.382L 973.452 880.691L 981.33 880.691L 981.33 928.382ZM 972.813 868.041C 972.813 866.718 973.197 865.602 973.963 864.691C 974.758 863.78 975.922 863.324 977.455 863.324C 978.988 863.324 980.152 863.78 980.947 864.691C 981.742 865.602 982.139 866.718 982.139 868.041C 982.139 869.363 981.742 870.465 980.947 871.346C 980.152 872.228 978.988 872.669 977.455 872.669C 975.922 872.669 974.758 872.228 973.963 871.346C 973.197 870.465 972.813 869.363 972.813 868.041Z"/>
<path id="path16_fill" d="M 1001.43 880.691L 1001.69 886.685C 1005.21 882.101 1009.8 879.809 1015.48 879.809C 1025.22 879.809 1030.13 885.495 1030.22 896.867L 1030.22 928.382L 1022.34 928.382L 1022.34 896.823C 1022.31 893.385 1021.54 890.843 1020.04 889.198C 1018.56 887.552 1016.25 886.729 1013.1 886.729C 1010.54 886.729 1008.3 887.435 1006.37 888.845C 1004.44 890.255 1002.93 892.107 1001.86 894.399L 1001.86 928.382L 993.978 928.382L 993.978 880.691L 1001.43 880.691Z"/>
<path id="path17_fill" d="M 1050.66 928.382L 1042.78 928.382L 1042.78 880.691L 1050.66 880.691L 1050.66 928.382ZM 1042.14 868.041C 1042.14 866.718 1042.52 865.602 1043.29 864.691C 1044.09 863.78 1045.25 863.324 1046.78 863.324C 1048.32 863.324 1049.48 863.78 1050.27 864.691C 1051.07 865.602 1051.47 866.718 1051.47 868.041C 1051.47 869.363 1051.07 870.465 1050.27 871.346C 1049.48 872.228 1048.32 872.669 1046.78 872.669C 1045.25 872.669 1044.09 872.228 1043.29 871.346C 1042.52 870.465 1042.14 869.363 1042.14 868.041Z"/>
<path id="path18_fill" d="M 1073.99 869.143L 1073.99 880.691L 1082.6 880.691L 1082.6 886.994L 1073.99 886.994L 1073.99 916.569C 1073.99 918.479 1074.38 919.919 1075.14 920.889C 1075.91 921.829 1077.22 922.299 1079.06 922.299C 1079.97 922.299 1081.22 922.123 1082.81 921.771L 1082.81 928.382C 1080.74 928.97 1078.72 929.264 1076.76 929.264C 1073.24 929.264 1070.59 928.162 1068.8 925.958C 1067.01 923.754 1066.12 920.624 1066.12 916.569L 1066.12 886.994L 1057.73 886.994L 1057.73 880.691L 1066.12 880.691L 1066.12 869.143L 1073.99 869.143Z"/>
<path id="path19_fill" d="M 1100.4 928.382L 1092.52 928.382L 1092.52 880.691L 1100.4 880.691L 1100.4 928.382ZM 1091.88 868.041C 1091.88 866.718 1092.26 865.602 1093.03 864.691C 1093.82 863.78 1094.99 863.324 1096.52 863.324C 1098.05 863.324 1099.22 863.78 1100.01 864.691C 1100.81 865.602 1101.2 866.718 1101.2 868.041C 1101.2 869.363 1100.81 870.465 1100.01 871.346C 1099.22 872.228 1098.05 872.669 1096.52 872.669C 1094.99 872.669 1093.82 872.228 1093.03 871.346C 1092.26 870.465 1091.88 869.363 1091.88 868.041Z"/>
<path id="path20_fill" d="M 1132.16 929.264C 1125.92 929.264 1120.84 927.148 1116.92 922.917C 1113 918.656 1111.04 912.97 1111.04 905.859L 1111.04 904.36C 1111.04 899.629 1111.91 895.412 1113.64 891.71C 1115.4 887.978 1117.84 885.069 1120.96 882.983C 1124.11 880.867 1127.52 879.809 1131.18 879.809C 1137.17 879.809 1141.83 881.852 1145.15 885.936C 1148.47 890.02 1150.13 895.868 1150.13 903.479L 1150.13 906.872L 1118.92 906.872C 1119.03 911.574 1120.35 915.379 1122.88 918.288C 1125.44 921.168 1128.67 922.608 1132.59 922.608C 1135.37 922.608 1137.73 922.02 1139.66 920.845C 1141.59 919.669 1143.28 918.112 1144.73 916.173L 1149.54 920.052C 1145.68 926.193 1139.89 929.264 1132.16 929.264ZM 1131.18 886.509C 1128 886.509 1125.34 887.714 1123.18 890.123C 1121.02 892.503 1119.69 895.853 1119.18 900.173L 1142.26 900.173L 1142.26 899.556C 1142.03 895.412 1140.95 892.21 1139.02 889.947C 1137.09 887.655 1134.48 886.509 1131.18 886.509Z"/>
<path id="path21_fill" d="M 1166.7 921.726L 1193.66 921.726L 1193.66 928.382L 1157.08 928.382L 1157.08 922.388L 1182.5 887.435L 1157.46 887.435L 1157.46 880.691L 1192.38 880.691L 1192.38 886.465L 1166.7 921.726Z"/>
<path id="path22_fill" d="M 1202.73 924.107C 1202.73 922.696 1203.12 921.521 1203.92 920.58C 1204.74 919.64 1205.96 919.17 1207.58 919.17C 1209.2 919.17 1210.42 919.64 1211.24 920.58C 1212.09 921.521 1212.52 922.696 1212.52 924.107C 1212.52 925.458 1212.09 926.59 1211.24 927.5C 1210.42 928.411 1209.2 928.867 1207.58 928.867C 1205.96 928.867 1204.74 928.411 1203.92 927.5C 1203.12 926.59 1202.73 925.458 1202.73 924.107Z"/>
<path id="path23_fill" d="M 1269.45 888.008C 1268.26 887.802 1266.97 887.699 1265.58 887.699C 1260.41 887.699 1256.91 889.976 1255.06 894.531L 1255.06 928.382L 1247.18 928.382L 1247.18 880.691L 1254.85 880.691L 1254.98 886.2C 1257.56 881.94 1261.22 879.809 1265.96 879.809C 1267.5 879.809 1268.66 880.015 1269.45 880.426L 1269.45 888.008Z"/>
<path id="path24_fill" d="M 1295.01 929.264C 1288.76 929.264 1283.68 927.148 1279.76 922.917C 1275.84 918.656 1273.88 912.97 1273.88 905.859L 1273.88 904.36C 1273.88 899.629 1274.75 895.412 1276.48 891.71C 1278.24 887.978 1280.68 885.069 1283.81 882.983C 1286.96 880.867 1290.36 879.809 1294.03 879.809C 1300.02 879.809 1304.67 881.852 1307.99 885.936C 1311.31 890.02 1312.98 895.868 1312.98 903.479L 1312.98 906.872L 1281.76 906.872C 1281.88 911.574 1283.2 915.379 1285.72 918.288C 1288.28 921.168 1291.51 922.608 1295.43 922.608C 1298.21 922.608 1300.57 922.02 1302.5 920.845C 1304.43 919.669 1306.12 918.112 1307.57 916.173L 1312.38 920.052C 1308.52 926.193 1302.73 929.264 1295.01 929.264ZM 1294.03 886.509C 1290.85 886.509 1288.18 887.714 1286.02 890.123C 1283.86 892.503 1282.53 895.853 1282.02 900.173L 1305.1 900.173L 1305.1 899.556C 1304.87 895.412 1303.79 892.21 1301.86 889.947C 1299.93 887.655 1297.32 886.509 1294.03 886.509ZM 1297.86 860.68L 1307.4 860.68L 1295.98 873.638L 1289.64 873.638L 1297.86 860.68Z"/>
<path id="path25_fill" d="M 1348.96 915.732C 1348.96 913.528 1348.15 911.824 1346.53 910.619C 1344.94 909.385 1342.15 908.327 1338.14 907.445C 1334.17 906.564 1331 905.506 1328.65 904.272C 1326.32 903.038 1324.59 901.569 1323.45 899.864C 1322.34 898.16 1321.79 896.132 1321.79 893.782C 1321.79 889.873 1323.38 886.568 1326.56 883.864C 1329.77 881.161 1333.86 879.809 1338.82 879.809C 1344.05 879.809 1348.28 881.205 1351.51 883.997C 1354.78 886.788 1356.41 890.358 1356.41 894.707L 1348.49 894.707C 1348.49 892.474 1347.57 890.549 1345.72 888.933C 1343.91 887.317 1341.61 886.509 1338.82 886.509C 1335.96 886.509 1333.71 887.155 1332.1 888.448C 1330.48 889.741 1329.67 891.431 1329.67 893.517C 1329.67 895.486 1330.42 896.97 1331.93 897.969C 1333.43 898.968 1336.14 899.923 1340.06 900.834C 1344.01 901.745 1347.2 902.832 1349.64 904.096C 1352.08 905.359 1353.89 906.887 1355.05 908.68C 1356.24 910.443 1356.84 912.602 1356.84 915.159C 1356.84 919.42 1355.19 922.843 1351.9 925.429C 1348.6 927.985 1344.33 929.264 1339.08 929.264C 1335.39 929.264 1332.12 928.588 1329.29 927.236C 1326.45 925.884 1324.22 924.004 1322.6 921.594C 1321.01 919.155 1320.22 916.525 1320.22 913.704L 1328.09 913.704C 1328.24 916.437 1329.29 918.612 1331.24 920.228C 1333.23 921.815 1335.84 922.608 1339.08 922.608C 1342.06 922.608 1344.45 921.991 1346.23 920.757C 1348.05 919.493 1348.96 917.818 1348.96 915.732Z"/>
<path id="path26_fill" d="M 1386.22 929.264C 1379.97 929.264 1374.89 927.148 1370.98 922.917C 1367.06 918.656 1365.1 912.97 1365.1 905.859L 1365.1 904.36C 1365.1 899.629 1365.96 895.412 1367.7 891.71C 1369.46 887.978 1371.9 885.069 1375.02 882.983C 1378.17 880.867 1381.58 879.809 1385.24 879.809C 1391.23 879.809 1395.89 881.852 1399.21 885.936C 1402.53 890.02 1404.19 895.868 1404.19 903.479L 1404.19 906.872L 1372.98 906.872C 1373.09 911.574 1374.41 915.379 1376.94 918.288C 1379.49 921.168 1382.73 922.608 1386.65 922.608C 1389.43 922.608 1391.79 922.02 1393.72 920.845C 1395.65 919.669 1397.34 918.112 1398.78 916.173L 1403.59 920.052C 1399.73 926.193 1393.94 929.264 1386.22 929.264ZM 1385.24 886.509C 1382.06 886.509 1379.39 887.714 1377.24 890.123C 1375.08 892.503 1373.74 895.853 1373.23 900.173L 1396.31 900.173L 1396.31 899.556C 1396.09 895.412 1395.01 892.21 1393.08 889.947C 1391.15 887.655 1388.53 886.509 1385.24 886.509Z"/>
<path id="path27_fill" d="M 1435.62 888.008C 1434.43 887.802 1433.13 887.699 1431.74 887.699C 1426.58 887.699 1423.07 889.976 1421.22 894.531L 1421.22 928.382L 1413.35 928.382L 1413.35 880.691L 1421.01 880.691L 1421.14 886.2C 1423.72 881.94 1427.39 879.809 1432.13 879.809C 1433.66 879.809 1434.82 880.015 1435.62 880.426L 1435.62 888.008Z"/>
<path id="path28_fill" d="M 1458.87 917.319L 1470.28 880.691L 1478.33 880.691L 1461.81 928.382L 1455.8 928.382L 1439.11 880.691L 1447.16 880.691L 1458.87 917.319Z"/>
<path id="path29_fill" d="M 1504.43 929.264C 1498.19 929.264 1493.11 927.148 1489.19 922.917C 1485.27 918.656 1483.31 912.97 1483.31 905.859L 1483.31 904.36C 1483.31 899.629 1484.18 895.412 1485.91 891.71C 1487.67 887.978 1490.11 885.069 1493.23 882.983C 1496.39 880.867 1499.79 879.809 1503.45 879.809C 1509.45 879.809 1514.1 881.852 1517.42 885.936C 1520.74 890.02 1522.4 895.868 1522.4 903.479L 1522.4 906.872L 1491.19 906.872C 1491.3 911.574 1492.62 915.379 1495.15 918.288C 1497.71 921.168 1500.94 922.608 1504.86 922.608C 1507.64 922.608 1510 922.02 1511.93 920.845C 1513.86 919.669 1515.55 918.112 1517 916.173L 1521.81 920.052C 1517.95 926.193 1512.16 929.264 1504.43 929.264ZM 1503.45 886.509C 1500.28 886.509 1497.61 887.714 1495.45 890.123C 1493.29 892.503 1491.96 895.853 1491.45 900.173L 1514.53 900.173L 1514.53 899.556C 1514.3 895.412 1513.22 892.21 1511.29 889.947C 1509.36 887.655 1506.75 886.509 1503.45 886.509Z"/>
<path id="path30_fill" d="M 1538.97 921.726L 1565.93 921.726L 1565.93 928.382L 1529.35 928.382L 1529.35 922.388L 1554.77 887.435L 1529.73 887.435L 1529.73 880.691L 1564.65 880.691L 1564.65 886.465L 1538.97 921.726Z"/>
<path id="path31_fill" d="M 1575 924.107C 1575 922.696 1575.39 921.521 1576.19 920.58C 1577.01 919.64 1578.23 919.17 1579.85 919.17C 1581.47 919.17 1582.69 919.64 1583.51 920.58C 1584.36 921.521 1584.79 922.696 1584.79 924.107C 1584.79 925.458 1584.36 926.59 1583.51 927.5C 1582.69 928.411 1581.47 928.867 1579.85 928.867C 1578.23 928.867 1577.01 928.411 1576.19 927.5C 1575.39 926.59 1575 925.458 1575 924.107Z"/>
<path id="path32_fill" d="M 1617.54 904.14C 1617.54 896.823 1619.21 890.946 1622.56 886.509C 1625.91 882.042 1630.3 879.809 1635.72 879.809C 1641.12 879.809 1645.39 881.719 1648.54 885.539L 1648.54 860.68L 1656.42 860.68L 1656.42 928.382L 1649.18 928.382L 1648.79 923.269C 1645.64 927.265 1641.26 929.264 1635.64 929.264C 1630.3 929.264 1625.94 927.001 1622.56 922.476C 1619.21 917.95 1617.54 912.044 1617.54 904.757L 1617.54 904.14ZM 1625.42 905.065C 1625.42 910.472 1626.49 914.703 1628.65 917.759C 1630.81 920.815 1633.79 922.344 1637.59 922.344C 1642.59 922.344 1646.24 920.022 1648.54 915.379L 1648.54 893.473C 1646.18 888.977 1642.56 886.729 1637.68 886.729C 1633.82 886.729 1630.81 888.272 1628.65 891.357C 1626.49 894.443 1625.42 899.012 1625.42 905.065Z"/>
<path id="path33_fill" d="M 1687.8 929.264C 1681.56 929.264 1676.47 927.148 1672.56 922.917C 1668.64 918.656 1666.68 912.97 1666.68 905.859L 1666.68 904.36C 1666.68 899.629 1667.55 895.412 1669.28 891.71C 1671.04 887.978 1673.48 885.069 1676.6 882.983C 1679.75 880.867 1683.16 879.809 1686.82 879.809C 1692.81 879.809 1697.47 881.852 1700.79 885.936C 1704.11 890.02 1705.77 895.868 1705.77 903.479L 1705.77 906.872L 1674.56 906.872C 1674.67 911.574 1675.99 915.379 1678.52 918.288C 1681.07 921.168 1684.31 922.608 1688.23 922.608C 1691.01 922.608 1693.37 922.02 1695.3 920.845C 1697.23 919.669 1698.92 918.112 1700.36 916.173L 1705.18 920.052C 1701.32 926.193 1695.52 929.264 1687.8 929.264ZM 1686.82 886.509C 1683.64 886.509 1680.97 887.714 1678.82 890.123C 1676.66 892.503 1675.32 895.853 1674.81 900.173L 1697.89 900.173L 1697.89 899.556C 1697.67 895.412 1696.59 892.21 1694.66 889.947C 1692.73 887.655 1690.12 886.509 1686.82 886.509ZM 1690.65 860.68L 1700.19 860.68L 1688.78 873.638L 1682.44 873.638L 1690.65 860.68Z"/>
<path id="path34_fill" d="M 1733.41 922.608C 1736.22 922.608 1738.68 921.726 1740.78 919.963C 1742.88 918.2 1744.04 915.996 1744.27 913.352L 1751.72 913.352C 1751.58 916.085 1750.67 918.685 1749 921.153C 1747.32 923.622 1745.08 925.591 1742.27 927.06C 1739.48 928.529 1736.53 929.264 1733.41 929.264C 1727.14 929.264 1722.14 927.104 1718.42 922.784C 1714.73 918.435 1712.88 912.5 1712.88 904.977L 1712.88 903.611C 1712.88 898.968 1713.71 894.839 1715.35 891.225C 1717 887.611 1719.36 884.805 1722.42 882.807C 1725.52 880.808 1729.17 879.809 1733.37 879.809C 1738.53 879.809 1742.82 881.411 1746.23 884.614C 1749.66 887.817 1751.49 891.974 1751.72 897.087L 1744.27 897.087C 1744.04 894.002 1742.91 891.475 1740.86 889.506C 1738.85 887.508 1736.35 886.509 1733.37 886.509C 1729.36 886.509 1726.26 888.008 1724.04 891.005C 1721.85 893.973 1720.76 898.277 1720.76 903.919L 1720.76 905.462C 1720.76 910.957 1721.85 915.188 1724.04 918.156C 1726.23 921.124 1729.35 922.608 1733.41 922.608Z"/>
<path id="path35_fill" d="M 1758.49 904.096C 1758.49 899.423 1759.37 895.221 1761.13 891.49C 1762.92 887.758 1765.39 884.878 1768.54 882.851C 1771.72 880.823 1775.34 879.809 1779.4 879.809C 1785.67 879.809 1790.74 882.057 1794.6 886.553C 1798.49 891.049 1800.44 897.029 1800.44 904.492L 1800.44 905.065C 1800.44 909.708 1799.57 913.881 1797.84 917.583C 1796.14 921.256 1793.68 924.121 1790.47 926.178C 1787.29 928.235 1783.63 929.264 1779.49 929.264C 1773.24 929.264 1768.17 927.016 1764.28 922.52C 1760.42 918.024 1758.49 912.074 1758.49 904.669L 1758.49 904.096ZM 1766.41 905.065C 1766.41 910.355 1767.59 914.601 1769.95 917.804C 1772.33 921.007 1775.51 922.608 1779.49 922.608C 1783.49 922.608 1786.67 920.992 1789.02 917.759C 1791.38 914.498 1792.56 909.943 1792.56 904.096C 1792.56 898.865 1791.35 894.634 1788.94 891.401C 1786.55 888.14 1783.37 886.509 1779.4 886.509C 1775.51 886.509 1772.37 888.11 1769.99 891.313C 1767.6 894.516 1766.41 899.1 1766.41 905.065Z"/>
<path id="path36_fill" d="M 1818.88 928.382L 1811 928.382L 1811 860.68L 1818.88 860.68L 1818.88 928.382Z"/>
<path id="path37_fill" d="M 1850.64 929.264C 1844.4 929.264 1839.32 927.148 1835.4 922.917C 1831.48 918.656 1829.52 912.97 1829.52 905.859L 1829.52 904.36C 1829.52 899.629 1830.39 895.412 1832.12 891.71C 1833.88 887.978 1836.32 885.069 1839.44 882.983C 1842.6 880.867 1846 879.809 1849.66 879.809C 1855.65 879.809 1860.31 881.852 1863.63 885.936C 1866.95 890.02 1868.61 895.868 1868.61 903.479L 1868.61 906.872L 1837.4 906.872C 1837.51 911.574 1838.83 915.379 1841.36 918.288C 1843.92 921.168 1847.15 922.608 1851.07 922.608C 1853.85 922.608 1856.21 922.02 1858.14 920.845C 1860.07 919.669 1861.76 918.112 1863.21 916.173L 1868.02 920.052C 1864.16 926.193 1858.37 929.264 1850.64 929.264ZM 1849.66 886.509C 1846.48 886.509 1843.82 887.714 1841.66 890.123C 1839.5 892.503 1838.17 895.853 1837.66 900.173L 1860.74 900.173L 1860.74 899.556C 1860.51 895.412 1859.43 892.21 1857.5 889.947C 1855.57 887.655 1852.96 886.509 1849.66 886.509Z"/>
<path id="path38_fill" d="M 1885.18 921.726L 1912.14 921.726L 1912.14 928.382L 1875.56 928.382L 1875.56 922.388L 1900.98 887.435L 1875.94 887.435L 1875.94 880.691L 1910.86 880.691L 1910.86 886.465L 1885.18 921.726Z"/>
<path id="path39_fill" d="M 1921.21 924.107C 1921.21 922.696 1921.6 921.521 1922.4 920.58C 1923.22 919.64 1924.44 919.17 1926.06 919.17C 1927.68 919.17 1928.9 919.64 1929.72 920.58C 1930.57 921.521 1931 922.696 1931 924.107C 1931 925.458 1930.57 926.59 1929.72 927.5C 1928.9 928.411 1927.68 928.867 1926.06 928.867C 1924.44 928.867 1923.22 928.411 1922.4 927.5C 1921.6 926.59 1921.21 925.458 1921.21 924.107Z"/>
</defs>
</svg>
