<svg width="64" height="66" viewBox="0 0 64 66" version="1.1" 
    xmlns="http://www.w3.org/2000/svg" 
    xmlns:xlink="http://www.w3.org/1999/xlink">
    <title>Calendar</title>
    <desc>Calendar Icon</desc>
    <g id="Canvas" transform="translate(-19182 -6735)">
        <g id="Calendar">
            <g id="Vector">
                <use xlink:href="#path0_fill" transform="translate(19182 6741.11)" fill="#FFFFFF"/>
            </g>
            <g id="Vector">
                <use xlink:href="#path1_fill" transform="translate(19195.6 6735)" fill="#FFFFFF"/>
            </g>
            <g id="Vector">
                <use xlink:href="#path2_fill" transform="translate(19227.7 6735)" fill="#FFFFFF"/>
            </g>
            <g id="Vector">
                <use xlink:href="#path3_fill" transform="translate(19201.6 6764.7)" fill="#FFFFFF"/>
            </g>
            <g id="Vector">
                <use xlink:href="#path4_fill" transform="translate(19215 6764.7)" fill="#FFFFFF"/>
            </g>
            <g id="Vector">
                <use xlink:href="#path5_fill" transform="translate(19228.6 6764.7)" fill="#FFFFFF"/>
            </g>
            <g id="Vector">
                <use xlink:href="#path6_fill" transform="translate(19188.1 6775.53)" fill="#FFFFFF"/>
            </g>
            <g id="Vector">
                <use xlink:href="#path7_fill" transform="translate(19201.6 6775.53)" fill="#EE282F"/>
            </g>
            <g id="Vector">
                <use xlink:href="#path8_fill" transform="translate(19215 6775.53)" fill="#FFFFFF"/>
            </g>
            <g id="Vector">
                <use xlink:href="#path9_fill" transform="translate(19228.6 6775.53)" fill="#FFFFFF"/>
            </g>
            <g id="Vector">
                <use xlink:href="#path10_fill" transform="translate(19188.1 6786.36)" fill="#FFFFFF"/>
            </g>
            <g id="Vector">
                <use xlink:href="#path11_fill" transform="translate(19201.6 6786.36)" fill="#FFFFFF"/>
            </g>
            <g id="Vector">
                <use xlink:href="#path12_fill" transform="translate(19215 6786.36)" fill="#FFFFFF"/>
            </g>
        </g>
    </g>
    <defs>
        <path id="path0_fill" d="M 58.3774 8.47176e-06L 52.8937 8.47176e-06L 52.8937 6.17664C 52.8937 8.81386 50.7419 10.9653 48.1041 10.9653C 45.4664 10.9653 43.3145 8.81386 43.3145 6.17664L 43.3145 8.47176e-06L 20.7549 8.47176e-06L 20.7549 6.17664C 20.7549 8.81386 18.6031 10.9653 15.9653 10.9653C 13.3276 10.9653 11.1757 8.81386 11.1757 6.17664L 11.1757 8.47176e-06L 5.62256 8.47176e-06C 2.49892 8.47176e-06 1.69469e-05 2.49841 1.69469e-05 5.62144L 1.69469e-05 54.2713C 1.69469e-05 57.3943 2.49892 59.8928 5.62256 59.8928L 58.3774 59.8928C 61.5011 59.8928 64 57.3943 64 54.2713L 64 5.62144C 64 2.49841 61.5011 8.47176e-06 58.3774 8.47176e-06ZM 60.7375 54.2713C 60.7375 55.5899 59.6963 56.631 58.3774 56.631L 5.62256 56.631C 4.30369 56.631 3.26246 55.5899 3.26246 54.2713L 3.26246 21.1672L 60.8069 21.1672L 60.8069 54.2713L 60.7375 54.2713Z"/>
        <path id="path1_fill" d="M 2.3601 14.5742C 3.67898 14.5742 4.72017 13.5331 4.72017 12.2145L 4.72017 2.35961C 4.72017 1.041 3.67898 1.69435e-05 2.3601 1.69435e-05C 1.04123 1.69435e-05 0 1.041 0 2.35961L 0 12.2145C 0 13.5331 1.04123 14.5742 2.3601 14.5742Z"/>
        <path id="path2_fill" d="M 2.3601 14.5742C 3.67897 14.5742 4.72016 13.5331 4.72016 12.2145L 4.72016 2.35961C 4.72016 1.041 3.67897 1.69435e-05 2.3601 1.69435e-05C 1.04122 1.69435e-05 -8.47343e-06 1.041 -8.47343e-06 2.35961L -8.47343e-06 12.2145C 0.0694058 13.5331 1.11064 14.5742 2.3601 14.5742Z"/>
        <path id="path3_fill" d="M 2.29069 8.95267L 9.02384 8.95267C 10.2733 8.95267 11.3146 7.91166 11.3146 6.66245L 11.3146 2.29022C 11.3146 1.04101 10.2733 8.47176e-06 9.02384 8.47176e-06L 2.29069 8.47176e-06C 1.04123 8.47176e-06 -1.69469e-05 1.04101 -1.69469e-05 2.29022L -1.69469e-05 6.66245C -1.69469e-05 7.91166 1.04123 8.95267 2.29069 8.95267Z"/>
        <path id="path4_fill" d="M 2.29066 8.95267L 9.02386 8.95267C 10.2733 8.95267 11.3145 7.91166 11.3145 6.66245L 11.3145 2.29022C 11.3145 1.04101 10.2733 8.47176e-06 9.02386 8.47176e-06L 2.29066 8.47176e-06C 1.04121 8.47176e-06 0 1.04101 0 2.29022L 0 6.66245C 0 7.91166 1.04121 8.95267 2.29066 8.95267Z"/>
        <path id="path5_fill" d="M 2.29066 8.95267L 9.02386 8.95267C 10.2733 8.95267 11.3145 7.91166 11.3145 6.66245L 11.3145 2.29022C 11.3145 1.04101 10.2733 8.47176e-06 9.02386 8.47176e-06L 2.29066 8.47176e-06C 1.04121 8.47176e-06 0 1.04101 0 2.29022L 0 6.66245C 0 7.91166 0.971792 8.95267 2.29066 8.95267Z"/>
        <path id="path6_fill" d="M 2.29067 8.95265L 9.02387 8.95265C 10.2733 8.95265 11.3145 7.91169 11.3145 6.66248L 11.3145 2.2902C 11.3145 1.04099 10.2733 -8.47176e-06 9.02387 -8.47176e-06L 2.29067 -8.47176e-06C 1.04121 -8.47176e-06 8.47343e-06 1.04099 8.47343e-06 2.2902L 8.47343e-06 6.66248C 8.47343e-06 7.91169 0.9718 8.95265 2.29067 8.95265Z"/>
        <path id="path7_fill" d="M 2.29069 8.95265L 9.02384 8.95265C 10.2733 8.95265 11.3146 7.91169 11.3146 6.66248L 11.3146 2.2902C 11.3146 1.04099 10.2733 -8.47176e-06 9.02384 -8.47176e-06L 2.29069 -8.47176e-06C 1.04123 -8.47176e-06 -1.69469e-05 1.04099 -1.69469e-05 2.2902L -1.69469e-05 6.66248C -1.69469e-05 7.91169 1.04123 8.95265 2.29069 8.95265Z"/>
        <path id="path8_fill" d="M 2.29066 8.95265L 9.02386 8.95265C 10.2733 8.95265 11.3145 7.91169 11.3145 6.66248L 11.3145 2.2902C 11.3145 1.04099 10.2733 -8.47176e-06 9.02386 -8.47176e-06L 2.29066 -8.47176e-06C 1.04121 -8.47176e-06 0 1.04099 0 2.2902L 0 6.66248C 0 7.91169 1.04121 8.95265 2.29066 8.95265Z"/>
        <path id="path9_fill" d="M 2.29066 8.95265L 9.02386 8.95265C 10.2733 8.95265 11.3145 7.91169 11.3145 6.66248L 11.3145 2.2902C 11.3145 1.04099 10.2733 -8.47176e-06 9.02386 -8.47176e-06L 2.29066 -8.47176e-06C 1.04121 -8.47176e-06 0 1.04099 0 2.2902L 0 6.66248C 0 7.91169 0.971792 8.95265 2.29066 8.95265Z"/>
        <path id="path10_fill" d="M 2.29067 8.95272L 9.02387 8.95272C 10.2733 8.95272 11.3145 7.91167 11.3145 6.66246L 11.3145 2.29019C 11.3145 1.04098 10.2733 1.69435e-05 9.02387 1.69435e-05L 2.29067 1.69435e-05C 1.04121 1.69435e-05 8.47343e-06 1.04098 8.47343e-06 2.29019L 8.47343e-06 6.66246C 8.47343e-06 7.91167 0.9718 8.95272 2.29067 8.95272Z"/>
        <path id="path11_fill" d="M 2.29069 8.95272L 9.02384 8.95272C 10.2733 8.95272 11.3146 7.91167 11.3146 6.66246L 11.3146 2.29019C 11.3146 1.04098 10.2733 1.69435e-05 9.02384 1.69435e-05L 2.29069 1.69435e-05C 1.04123 1.69435e-05 -1.69469e-05 1.04098 -1.69469e-05 2.29019L -1.69469e-05 6.66246C -1.69469e-05 7.91167 1.04123 8.95272 2.29069 8.95272Z"/>
        <path id="path12_fill" d="M 2.29066 8.95272L 9.02386 8.95272C 10.2733 8.95272 11.3145 7.91167 11.3145 6.66246L 11.3145 2.29019C 11.3145 1.04098 10.2733 1.69435e-05 9.02386 1.69435e-05L 2.29066 1.69435e-05C 1.04121 1.69435e-05 0 1.04098 0 2.29019L 0 6.66246C 0 7.91167 1.04121 8.95272 2.29066 8.95272Z"/>
    </defs>
</svg>
