<svg width="40" height="40" viewBox="0 0 40 40" version="1.1" xmlns="http://www.w3.org/2000/svg" xmlns:xlink="http://www.w3.org/1999/xlink">
<title>Facebook</title>
<desc>Created using Figma</desc>
<g id="Canvas" transform="translate(-19158 -8480)">
<g id="Facebook">
<use xlink:href="#path0_fill" transform="translate(19158 8480)" fill="#FFFFFF"/>
</g>
</g>
<defs>
<path id="path0_fill" fill-rule="evenodd" d="M 20 40C 8.9543 40 0 31.0457 0 20C 0 8.9543 8.9543 0 20 0C 31.0457 0 40 8.9543 40 20C 40 31.0457 31.0457 40 20 40ZM 17.1768 30.8798L 21.6724 30.8798L 21.6724 19.9987L 24.6717 19.9987L 25.0692 16.2491L 21.6724 16.2491L 21.6775 14.3723C 21.6775 13.3943 21.7703 12.8703 23.1729 12.8703L 25.0479 12.8703L 25.0479 9.12022L 22.0482 9.12022C 18.445 9.12022 17.1768 10.9392 17.1768 13.9982L 17.1768 16.2495L 14.9308 16.2495L 14.9308 19.9992L 17.1768 19.9992L 17.1768 30.8798Z"/>
</defs>
</svg>
