<svg width="201" height="99" viewBox="0 0 201 99" version="1.1" 
    xmlns="http://www.w3.org/2000/svg" 
    xmlns:xlink="http://www.w3.org/1999/xlink">
    <title>Logo Edgard</title>
    <desc>Logo Edgard (FR)</desc>
    <g id="Canvas" transform="translate(-18866 -5627)">
        <g id="Logo">
            <g id="Vector">
                <use xlink:href="#path0_fill" transform="translate(18866 5675.6)" fill="#3D3948"/>
            </g>
            <g id="Vector">
                <use xlink:href="#path1_fill" transform="translate(18969 5675.78)" fill="#3D3948"/>
            </g>
            <g id="Vector">
                <use xlink:href="#path2_fill" transform="translate(19006.8 5675.72)" fill="#3D3948"/>
            </g>
            <g id="Vector">
                <use xlink:href="#path3_fill" transform="translate(19030.5 5662.64)" fill="#3D3948"/>
            </g>
            <g id="Vector">
                <use xlink:href="#path4_fill" transform="translate(18900.3 5665.18)" fill="#3D3948"/>
            </g>
            <g id="Vector">
                <use xlink:href="#path5_fill" transform="translate(18936.7 5675.34)" fill="#3D3948"/>
            </g>
            <g id="Vector">
                <use xlink:href="#path6_fill" transform="translate(18969.6 5719.37)" fill="#EE2B31"/>
            </g>
            <g id="Vector">
                <use xlink:href="#path7_fill" transform="translate(18971.8 5721.14)" fill="#EE2B31"/>
            </g>
            <g id="Vector">
                <use xlink:href="#path8_fill" transform="translate(18976.9 5719.37)" fill="#EE2B31"/>
            </g>
            <g id="Vector">
                <use xlink:href="#path9_fill" transform="translate(18978.6 5719.87)" fill="#EE2B31"/>
            </g>
            <g id="Vector">
                <use xlink:href="#path10_fill" transform="translate(18982.1 5719.37)" fill="#EE2B31"/>
            </g>
            <g id="Vector">
                <use xlink:href="#path11_fill" transform="translate(18984.1 5721.12)" fill="#EE2B31"/>
            </g>
            <g id="Vector">
                <use xlink:href="#path12_fill" transform="translate(18988.5 5721.22)" fill="#EE2B31"/>
            </g>
            <g id="Vector">
                <use xlink:href="#path13_fill" transform="translate(18992.8 5724.75)" fill="#EE2B31"/>
            </g>
            <g id="Vector">
                <use xlink:href="#path14_fill" transform="translate(18996.9 5721.1)" fill="#EE2B31"/>
            </g>
            <g id="Vector">
                <use xlink:href="#path15_fill" transform="translate(18999.5 5719.17)" fill="#EE2B31"/>
            </g>
            <g id="Vector">
                <use xlink:href="#path16_fill" transform="translate(19004.2 5721.12)" fill="#EE2B31"/>
            </g>
            <g id="Vector">
                <use xlink:href="#path17_fill" transform="translate(19007.9 5721.12)" fill="#EE2B31"/>
            </g>
            <g id="Vector">
                <use xlink:href="#path18_fill" transform="translate(19012.9 5721.1)" fill="#EE2B31"/>
            </g>
            <g id="Vector">
                <use xlink:href="#path19_fill" transform="translate(19015.5 5721.21)" fill="#EE2B31"/>
            </g>
            <g id="Vector">
                <use xlink:href="#path20_fill" transform="translate(19020.2 5721.12)" fill="#EE2B31"/>
            </g>
            <g id="Vector">
                <use xlink:href="#path21_fill" transform="translate(19024.6 5721.22)" fill="#EE2B31"/>
            </g>
            <g id="Vector">
                <use xlink:href="#path22_fill" transform="translate(19028.9 5724.75)" fill="#EE2B31"/>
            </g>
            <g id="Vector">
                <use xlink:href="#path23_fill" transform="translate(19032.7 5719.01)" fill="#EE2B31"/>
            </g>
            <g id="Vector">
                <use xlink:href="#path24_fill" transform="translate(19037.9 5719.17)" fill="#EE2B31"/>
            </g>
            <g id="Vector">
                <use xlink:href="#path25_fill" transform="translate(19042.6 5721.08)" fill="#EE2B31"/>
            </g>
            <g id="Vector">
                <use xlink:href="#path26_fill" transform="translate(19046.7 5721.11)" fill="#EE2B31"/>
            </g>
            <g id="Vector">
                <use xlink:href="#path27_fill" transform="translate(19052.1 5719.03)" fill="#EE2B31"/>
            </g>
            <g id="Vector">
                <use xlink:href="#path28_fill" transform="translate(19054 5721.12)" fill="#EE2B31"/>
            </g>
            <g id="Vector">
                <use xlink:href="#path29_fill" transform="translate(19058.4 5721.22)" fill="#EE2B31"/>
            </g>
            <g id="Vector">
                <use xlink:href="#path30_fill" transform="translate(19062.7 5724.75)" fill="#EE2B31"/>
            </g>
            <g id="Vector">
                <use xlink:href="#path31_fill" transform="translate(18965.1 5641.39)" fill="#761214"/>
            </g>
            <g id="Vector">
                <use xlink:href="#path32_fill" transform="translate(18965.1 5643.2)" fill="#9E1D21"/>
            </g>
            <g id="Vector">
                <use xlink:href="#path33_fill" transform="translate(18962.6 5627)" fill="#EE2B31"/>
            </g>
            <g id="Vector">
                <use xlink:href="#path34_fill" transform="translate(18962.3 5643.24)" fill="#EE2B31"/>
            </g>
            <g id="Vector">
                <use xlink:href="#path35_fill" transform="translate(19016.8 5641.4)" fill="#761214"/>
            </g>
            <g id="Vector">
                <use xlink:href="#path36_fill" transform="translate(19016.8 5643.21)" fill="#9E1D21"/>
            </g>
            <g id="Vector">
                <use xlink:href="#path37_fill" transform="translate(19016.8 5627.02)" fill="#EE2B31"/>
            </g>
            <g id="Vector">
                <use xlink:href="#path38_fill" transform="translate(19016.8 5643.26)" fill="#EE2B31"/>
            </g>
        </g>
    </g>
    <defs>
        <path id="path0_fill" d="M 7.7478 18.7896C 8.23932 22.5409 11.5051 25.2585 16.7952 25.2585C 19.5611 25.2585 23.1934 24.2165 24.9179 22.4242L 29.7165 27.1674C 26.5175 30.5019 21.2856 32.0941 16.6619 32.0941C 6.19823 32.0941 -2.54241e-06 25.6253 -2.54241e-06 15.8887C -2.54241e-06 6.65223 6.28154 1.52639e-06 16.1287 1.52639e-06C 26.2925 1.52639e-06 32.6241 6.28544 31.4577 18.7813L 7.7478 18.7896ZM 24.2431 12.5709C 23.7516 8.6279 20.6691 6.66057 16.362 6.66057C 12.2965 6.66057 8.98078 8.63623 7.86443 12.5709L 24.2431 12.5709Z"/>
        <path id="path1_fill" d="M 25.726 0.742378L 32.9323 0.742378L 32.9323 31.1109L 25.851 31.1109L 25.4844 26.6761C 23.7599 30.2439 19.0196 31.9779 15.6372 32.0362C 6.64811 32.0946 6.10178e-06 26.5594 6.10178e-06 15.8975C 6.10178e-06 5.42728 6.95636 -0.0578896 15.8288 0.000463306C 19.8944 0.000463306 23.7683 1.90944 25.4928 4.92712L 25.726 0.742378ZM 7.50619 15.8975C 7.50619 21.6911 11.5051 25.1339 16.4953 25.1339C 28.3169 25.1339 28.3169 6.71938 16.4953 6.71938C 11.4967 6.71938 7.50619 10.1122 7.50619 15.8891"/>
        <path id="path2_fill" d="M 6.93969 0.801686L 7.49788 4.31119C 9.83888 0.559931 12.9796 0.00141162 16.0538 0.00141162C 18.9295 -0.0437053 21.7177 0.991378 23.8682 2.90239L 20.4859 9.42957C 19.7574 8.76059 18.904 8.24237 17.9746 7.90473C 17.0453 7.5671 16.0584 7.41671 15.0707 7.46225C 11.1302 7.46225 7.49788 9.55462 7.49788 15.1648L 7.49788 31.1785L 1.11866e-05 31.1785L 1.11866e-05 0.801686L 6.93969 0.801686Z"/>
        <path id="path3_fill" d="M 32.9406 -1.01759e-06L 32.9406 44.2482L 25.9176 44.2482L 25.4261 40.0801C 23.0851 43.7147 19.3362 44.9484 15.6372 44.9484C 6.71477 44.9484 -4.06785e-06 39.0381 -4.06785e-06 29.0597C -4.06785e-06 18.5896 6.5898 13.1628 15.4539 13.1628C 18.653 13.1628 23.6433 14.8883 25.4511 18.0311L 25.4511 1.22541L 32.9406 -1.01759e-06ZM 7.51454 29.0347C 7.51454 34.3282 11.3301 37.9627 16.1371 37.9627C 18.4486 37.8919 20.6418 36.9234 22.2518 35.2622C 23.8619 33.6011 24.7623 31.378 24.7623 29.0639C 24.7623 26.7499 23.8619 24.5267 22.2518 22.8656C 20.6418 21.2045 18.4486 20.2359 16.1371 20.1651C 11.3384 20.1651 7.51454 23.5496 7.51454 29.0347Z"/>
        <path id="path4_fill" d="M 25.4511 1.52639e-06L 25.4511 15.4719C 23.6683 12.3291 18.678 10.6036 15.4539 10.6036C 6.5898 10.6036 1.52545e-06 16.022 1.52545e-06 26.5006C 1.52545e-06 36.5039 6.70643 42.3892 15.6372 42.3892C 19.3278 42.3892 23.0851 41.1555 25.4261 37.5209L 25.9176 41.689L 32.9323 41.689L 32.9323 2.64255L 25.4511 1.52639e-06ZM 16.1537 35.4286C 11.3551 35.4286 7.53953 31.794 7.53953 26.5006C 7.53953 21.0154 11.3551 17.6309 16.1537 17.6309C 18.4653 17.7017 20.6584 18.6703 22.2685 20.3314C 23.8786 21.9926 24.779 24.2157 24.779 26.5297C 24.779 28.8438 23.8786 31.0669 22.2685 32.728C 20.6584 34.3892 18.4653 35.3578 16.1537 35.4286Z"/>
        <path id="path5_fill" d="M 30.7246 15.5969C 30.8432 12.3002 29.6989 9.0827 27.5255 6.60222L 30.7913 2.43415L 23.8682 3.56158e-06L 22.352 1.91732C 20.261 0.651233 17.8355 0.0495464 15.3956 0.191731C 6.89804 0.191731 3.55937e-06 6.10205 3.55937e-06 15.5886C 3.55937e-06 25.0751 5.91498 30.8603 15.3956 30.8603C 19.1529 30.8603 23.0851 32.7693 23.0851 36.9541C 23.0851 41.1388 19.7027 43.5396 15.3956 43.5396C 11.0885 43.5396 7.45621 40.9554 7.45621 37.0124L 0.00832995 37.0124C 0.00832995 45.2068 6.59813 50.567 15.404 50.567C 24.2098 50.567 30.608 45.3986 30.608 37.0124C 30.608 33.1361 29.375 29.5099 24.3264 27.0091C 29.325 24.7333 30.7246 19.4315 30.7246 15.6719L 30.7246 15.5969ZM 15.3956 24.0331C 11.0302 24.0331 7.45621 20.8903 7.45621 15.5969C 7.45621 10.3035 11.0302 7.0357 15.3956 7.0357C 19.761 7.0357 23.2767 10.3701 23.2767 15.5969C 23.2767 20.8236 19.7027 24.0331 15.3956 24.0331Z"/>
        <path id="path6_fill" d="M 1.01221 0.525268C 1.02144 0.59694 1.0153 0.669753 0.994188 0.738861C 0.97308 0.80797 0.937489 0.871783 0.889796 0.926048C 0.842103 0.980313 0.783402 1.02379 0.717599 1.05357C 0.651796 1.08334 0.5804 1.09875 0.508181 1.09875C 0.435961 1.09875 0.364591 1.08334 0.298788 1.05357C 0.232985 1.02379 0.174258 0.980313 0.126565 0.926048C 0.0788724 0.871783 0.0433073 0.80797 0.0221993 0.738861C 0.00109137 0.669753 -0.00505411 0.59694 0.00417366 0.525268C 0.00193884 0.457101 0.0134259 0.389185 0.0379623 0.325553C 0.0624987 0.261921 0.0995666 0.203876 0.146981 0.154877C 0.194395 0.105878 0.251173 0.066925 0.313941 0.040334C 0.376709 0.0137431 0.444189 5.1541e-05 0.51235 8.82102e-05C 0.580498 -0.00122556 0.648185 0.0116559 0.71109 0.0379173C 0.773996 0.0641787 0.830738 0.10325 0.877745 0.152638C 0.924753 0.202027 0.960998 0.260653 0.984145 0.324802C 1.00729 0.388952 1.01685 0.457223 1.01221 0.525268ZM 0.104141 6.4856L 0.104141 1.83403L 0.937238 1.83403L 0.937238 6.4856L 0.104141 6.4856Z"/>
        <path id="path7_fill" d="M 0.0166538 1.32592C 0.0166538 0.842424 0.0166538 0.492299 0.0166538 0.0671562L 0.741444 0.0671562L 0.791453 0.834091C 0.941018 0.57468 1.15765 0.360364 1.41859 0.213677C 1.67953 0.0669899 1.97515 -0.00665265 2.27436 0.000478405C 2.89919 0.000478405 3.85724 0.383932 3.85724 1.98447L 3.85724 4.7604L 3.02415 4.7604L 3.02415 2.07617C 3.02415 1.32591 2.75755 0.70071 1.98277 0.70071C 1.73613 0.706308 1.49761 0.79002 1.30151 0.939807C 1.10541 1.08959 0.961844 1.29774 0.89142 1.53432C 0.85116 1.66096 0.831465 1.79324 0.833097 1.92612L 0.833097 4.72706L 1.01696e-06 4.72706L 0.0166538 1.32592Z"/>
        <path id="path8_fill" d="M 1.01221 0.525268C 1.02144 0.59694 1.01529 0.669753 0.994187 0.738861C 0.973079 0.80797 0.937488 0.871783 0.889795 0.926048C 0.842102 0.980313 0.783401 1.02379 0.717598 1.05357C 0.651795 1.08334 0.580399 1.09875 0.50818 1.09875C 0.43596 1.09875 0.36459 1.08334 0.298787 1.05357C 0.232984 1.02379 0.174282 0.980313 0.12659 0.926048C 0.0788968 0.871783 0.0433063 0.80797 0.0221983 0.738861C 0.00109035 0.669753 -0.00505513 0.59694 0.00417264 0.525268C 0.00193782 0.457101 0.0134248 0.389185 0.0379613 0.325553C 0.0624977 0.261921 0.0995656 0.203876 0.14698 0.154877C 0.194394 0.105878 0.251172 0.066925 0.31394 0.040334C 0.376708 0.0137431 0.444187 5.1541e-05 0.512349 8.82102e-05C 0.580497 -0.00122556 0.648184 0.0116559 0.711089 0.0379173C 0.773995 0.0641787 0.830737 0.10325 0.877744 0.152638C 0.924752 0.202027 0.960997 0.260653 0.984144 0.324802C 1.00729 0.388952 1.01685 0.457223 1.01221 0.525268ZM 0.10414 6.4856L 0.10414 1.83403L 0.937237 1.83403L 0.937237 6.4856L 0.10414 6.4856Z"/>
        <path id="path9_fill" d="M 1.53289 2.03519e-06L 1.53289 1.33378L 2.69922 1.33378L 2.69922 1.97566L 1.53289 1.97566L 1.53289 4.4765C 1.53289 5.05169 1.6912 5.3768 2.1494 5.3768C 2.30961 5.3792 2.46937 5.35957 2.62424 5.31846L 2.62424 5.952C 2.39226 6.03668 2.14627 6.07629 1.89945 6.0687C 1.73488 6.07846 1.57021 6.05134 1.41744 5.98933C 1.26467 5.92732 1.12765 5.83197 1.01637 5.71024C 0.767267 5.35935 0.654695 4.92955 0.699794 4.50151L 0.699794 2.00067L -4.06785e-06 2.00067L -4.06785e-06 1.3588L 0.699794 1.3588L 0.699794 0.241744L 1.53289 2.03519e-06Z"/>
        <path id="path10_fill" d="M 1.01221 0.525268C 1.02144 0.59694 1.01529 0.669753 0.994185 0.738861C 0.973077 0.80797 0.937486 0.871783 0.889793 0.926048C 0.8421 0.980313 0.783399 1.02379 0.717596 1.05357C 0.651793 1.08334 0.580397 1.09875 0.508178 1.09875C 0.435958 1.09875 0.364588 1.08334 0.298785 1.05357C 0.232982 1.02379 0.17428 0.980313 0.126588 0.926048C 0.0788948 0.871783 0.0433043 0.80797 0.0221963 0.738861C 0.00108832 0.669753 -0.00505716 0.59694 0.00417061 0.525268C 0.00193578 0.457101 0.0134228 0.389185 0.0379592 0.325553C 0.0624956 0.261921 0.0995636 0.203876 0.146978 0.154877C 0.194392 0.105878 0.251195 0.066925 0.313963 0.040334C 0.376731 0.0137431 0.444185 5.1541e-05 0.512347 8.82102e-05C 0.580495 -0.00122556 0.648182 0.0116559 0.711087 0.0379173C 0.773993 0.0641787 0.83076 0.10325 0.877768 0.152638C 0.924775 0.202027 0.960995 0.260653 0.984142 0.324802C 1.00729 0.388952 1.01684 0.457223 1.01221 0.525268ZM 0.104138 6.4856L 0.104138 1.83403L 0.937235 1.83403L 0.937235 6.4856L 0.104138 6.4856Z"/>
        <path id="path11_fill" d="M 0.786064 2.56753C 0.764003 2.7789 0.788111 2.99255 0.856692 3.19368C 0.925274 3.39482 1.03669 3.57865 1.18326 3.73245C 1.32984 3.88625 1.50807 4.00634 1.7056 4.08443C 1.90313 4.16253 2.11525 4.19676 2.3273 4.18474C 2.7539 4.19765 3.17798 4.11505 3.5686 3.94299L 3.71024 4.55152C 3.24028 4.75613 2.73136 4.8557 2.21899 4.84329C 1.91389 4.8569 1.60944 4.80452 1.3264 4.68974C 1.04336 4.57495 0.788392 4.40044 0.578858 4.17812C 0.369324 3.95579 0.210171 3.69089 0.112224 3.40144C 0.0142775 3.11199 -0.0201512 2.80481 0.0112908 2.50084C 0.0112908 1.10037 0.844386 2.03519e-06 2.11902 2.03519e-06C 2.3889 0.0105969 2.65364 0.0771879 2.89644 0.195558C 3.13925 0.313928 3.35483 0.481497 3.5295 0.687628C 3.70417 0.893759 3.83411 1.13396 3.91112 1.393C 3.98812 1.65204 4.01052 1.92426 3.97684 2.19241C 3.98463 2.32289 3.98463 2.45371 3.97684 2.58419L 0.786064 2.56753ZM 3.17705 1.95898C 3.17705 1.41714 2.96045 0.583529 2.04405 0.583529C 1.12764 0.583529 0.85272 1.37546 0.794403 1.95898L 3.17705 1.95898Z"/>
        <path id="path12_fill" d="M -1.01696e-05 4.15139L 2.03275 1.40881C 2.22436 1.15872 2.41598 0.933651 2.61593 0.683567L 0.166619 0.683567L 0.166619 -2.03519e-06L 3.59063 -2.03519e-06L 3.59063 0.525178L 1.58289 3.22608C 1.39961 3.4845 1.208 3.71791 1.00805 3.95966L 3.6323 3.95966L 3.6323 4.63488L -1.01696e-05 4.63488L -1.01696e-05 4.15139Z"/>
        <path id="path13_fill" d="M 0.0022533 0.6106C -0.00470587 0.533161 0.00456474 0.455122 0.0294825 0.381476C 0.0544003 0.30783 0.0943999 0.240201 0.146942 0.182918C 0.199484 0.125636 0.263399 0.0799546 0.334597 0.0488119C 0.405795 0.0176692 0.482711 0.00174103 0.560414 0.00205349C 0.682327 -0.0080063 0.804447 0.0189548 0.910808 0.0794161C 1.01717 0.139877 1.10282 0.23104 1.15661 0.340976C 1.21039 0.450912 1.2298 0.574517 1.21229 0.695658C 1.19477 0.8168 1.14116 0.929838 1.05845 1.02002C 0.975731 1.11019 0.867778 1.17332 0.748654 1.20115C 0.629529 1.22897 0.504775 1.2202 0.390708 1.17599C 0.276641 1.13177 0.178566 1.05416 0.109263 0.9533C 0.039961 0.852436 0.00266713 0.733002 0.0022533 0.6106Z"/>
        <path id="path14_fill" d="M 0.00833605 1.55873C 0.00833605 1.00854 0.00833605 0.541717 0.00833605 0.108238L 0.724787 0.108238L 0.724787 1.02522C 0.79692 0.745753 0.956133 0.496533 1.17932 0.313677C 1.4025 0.130821 1.67808 0.0238286 1.96612 0.00820831C 2.04349 -0.00273814 2.12201 -0.00273814 2.19938 0.00820831L 2.19938 0.841821C 2.10805 0.831205 2.01578 0.831205 1.92445 0.841821C 1.64214 0.859331 1.37582 0.978892 1.17505 1.17825C 0.97428 1.37761 0.852755 1.64318 0.833093 1.92552C 0.823055 2.05593 0.823055 2.18691 0.833093 2.31732L 0.833093 4.81816L -3.05089e-06 4.81816L 0.00833605 1.55873Z"/>
        <path id="path15_fill" d="M 0.786071 4.51819C 0.764009 4.72956 0.788092 4.9432 0.856673 5.14434C 0.925255 5.34547 1.0367 5.5293 1.18327 5.6831C 1.32985 5.8369 1.50805 5.95699 1.70558 6.03509C 1.90311 6.11318 2.11525 6.14741 2.3273 6.1354C 2.7539 6.14831 3.17799 6.06571 3.56861 5.89364L 3.71025 6.50218C 3.24028 6.70678 2.73137 6.80636 2.219 6.79395C 1.9139 6.80755 1.60945 6.75518 1.32641 6.64039C 1.04337 6.5256 0.788398 6.35109 0.578864 6.12877C 0.36933 5.90645 0.210177 5.64154 0.11223 5.35209C 0.0142836 5.06264 -0.0201451 4.75546 0.0112969 4.4515C 0.0112969 3.05103 0.844392 1.95066 2.11903 1.95066C 2.38891 1.96125 2.65364 2.02784 2.89645 2.14621C 3.13925 2.26458 3.35481 2.43215 3.52948 2.63828C 3.70415 2.84441 3.83412 3.08462 3.91112 3.34365C 3.98813 3.60269 4.0105 3.87492 3.97682 4.14306C 3.98486 4.27354 3.98486 4.40437 3.97682 4.53485L 0.786071 4.51819ZM 3.17705 3.90964C 3.17705 3.36779 2.96046 2.53418 2.04405 2.53418C 1.12765 2.53418 0.852726 3.32611 0.79441 3.90964L 3.17705 3.90964ZM 3.36867 0.0250125L 2.24399 1.37546L 1.66915 1.37546L 2.50225 5.08797e-06L 3.36867 0.0250125Z"/>
        <path id="path16_fill" d="M 0.241595 3.88438C 0.562652 4.09169 0.934347 4.20703 1.3163 4.21784C 1.90779 4.21784 2.14939 3.9094 2.14939 3.52594C 2.14939 3.14247 1.91613 2.90073 1.3163 2.69232C 0.4832 2.39222 0.124975 1.93373 0.124975 1.37521C 0.12848 1.18078 0.172413 0.989206 0.253976 0.8127C 0.33554 0.636193 0.452931 0.478621 0.598702 0.350013C 0.744472 0.221404 0.915427 0.124579 1.10065 0.0657096C 1.28587 0.00684019 1.4813 -0.0127785 1.67452 0.00808834C 2.06324 0.00488121 2.44577 0.105599 2.78255 0.299845L 2.57428 0.916723C 2.30134 0.740294 1.9828 0.647577 1.65787 0.649974C 1.56636 0.638354 1.47343 0.645868 1.38497 0.672043C 1.29651 0.698218 1.21445 0.742476 1.14397 0.802028C 1.07349 0.86158 1.01614 0.93512 0.975537 1.018C 0.934933 1.10088 0.911966 1.19129 0.908087 1.28352C 0.908087 1.66698 1.17468 1.84203 1.74118 2.07544C 2.52429 2.38388 2.92417 2.78402 2.92417 3.47592C 2.92417 4.16782 2.30768 4.86805 1.25797 4.86805C 0.818094 4.87509 0.384144 4.76581 -1.01696e-05 4.55128L 0.241595 3.88438Z"/>
        <path id="path17_fill" d="M 0.786071 2.56753C 0.764009 2.7789 0.788092 2.99255 0.856673 3.19368C 0.925255 3.39482 1.0367 3.57865 1.18327 3.73245C 1.32985 3.88625 1.50805 4.00634 1.70558 4.08443C 1.90311 4.16253 2.11525 4.19676 2.3273 4.18474C 2.75393 4.19794 3.17808 4.11532 3.56861 3.94299L 3.71025 4.55152C 3.2402 4.75587 2.73134 4.85543 2.219 4.84329C 1.9139 4.8569 1.60945 4.80452 1.32641 4.68974C 1.04337 4.57495 0.788398 4.40044 0.578864 4.17812C 0.36933 3.95579 0.210177 3.69089 0.11223 3.40144C 0.0142836 3.11199 -0.0201451 2.80481 0.0112969 2.50084C 0.0112969 1.10037 0.844392 2.03519e-06 2.11903 2.03519e-06C 2.38891 0.0105969 2.65364 0.0771879 2.89645 0.195558C 3.13925 0.313928 3.35481 0.481497 3.52948 0.687628C 3.70415 0.893759 3.83412 1.13396 3.91112 1.393C 3.98813 1.65204 4.0105 1.92426 3.97682 2.19241C 3.98436 2.3229 3.98436 2.4537 3.97682 2.58419L 0.786071 2.56753ZM 3.17705 1.95898C 3.17705 1.41714 2.96046 0.583529 2.04405 0.583529C 1.12765 0.583529 0.852726 1.37546 0.79441 1.95898L 3.17705 1.95898Z"/>
        <path id="path18_fill" d="M 0.00833096 1.55873C 0.00833096 1.00854 0.00833096 0.541717 0.00833096 0.108238L 0.724782 0.108238L 0.724782 1.02522C 0.796915 0.745753 0.956128 0.496533 1.17931 0.313677C 1.4025 0.130821 1.67808 0.0238286 1.96611 0.00820831C 2.04348 -0.00273814 2.12201 -0.00273814 2.19938 0.00820831L 2.19938 0.841821C 2.10804 0.83128 2.01578 0.83128 1.92444 0.841821C 1.64214 0.859331 1.37581 0.978892 1.17504 1.17825C 0.974274 1.37761 0.85275 1.64318 0.833088 1.92552C 0.822603 2.05591 0.822603 2.18693 0.833088 2.31732L 0.833088 4.81816L -8.13571e-06 4.81816L 0.00833096 1.55873Z"/>
        <path id="path19_fill" d="M 0.924736 -5.59677e-06L 1.80782 2.61754C 1.94746 3.00852 2.06702 3.40641 2.16604 3.80961C 2.26601 3.42615 2.39933 3.04268 2.54928 2.61754L 3.38238 -5.59677e-06L 4.21548 -5.59677e-06L 2.44929 4.65156L 1.6662 4.65156L 1.11866e-05 -5.59677e-06L 0.924736 -5.59677e-06Z"/>
        <path id="path20_fill" d="M 0.786079 2.56753C 0.764017 2.7789 0.7881 2.99255 0.856681 3.19368C 0.925263 3.39482 1.03671 3.57865 1.18328 3.73245C 1.32985 3.88625 1.50806 4.00634 1.70559 4.08443C 1.90312 4.16253 2.11524 4.19676 2.32729 4.18474C 2.75391 4.19794 3.17808 4.11532 3.56862 3.94299L 3.71023 4.55152C 3.24019 4.75587 2.73135 4.85543 2.21901 4.84329C 1.91391 4.8569 1.60945 4.80452 1.32642 4.68974C 1.04338 4.57495 0.788406 4.40044 0.578872 4.17812C 0.369339 3.95579 0.21016 3.69089 0.112213 3.40144C 0.0142664 3.11199 -0.0201624 2.80481 0.0112796 2.50084C 0.0112796 1.10037 0.844375 2.03519e-06 2.11901 2.03519e-06C 2.38889 0.0105969 2.65363 0.0771879 2.89643 0.195558C 3.13923 0.313928 3.35482 0.481497 3.52949 0.687628C 3.70416 0.893759 3.83412 1.13396 3.91113 1.393C 3.98814 1.65204 4.01051 1.92426 3.97683 2.19241C 3.98437 2.3229 3.98437 2.4537 3.97683 2.58419L 0.786079 2.56753ZM 3.17706 1.95898C 3.17706 1.41714 2.96044 0.583529 2.04404 0.583529C 1.12763 0.583529 0.852709 1.37546 0.794392 1.95898L 3.17706 1.95898Z"/>
        <path id="path21_fill" d="M 0.0416589 4.15139L 2.07442 1.40881C 2.26603 1.15872 2.45763 0.933651 2.65757 0.683567L 0.224941 0.683567L 0.224941 -2.03519e-06L 3.64896 -2.03519e-06L 3.64896 0.525178L 1.59955 3.21774C 1.41626 3.47616 1.22465 3.70958 1.02471 3.95133L 3.64896 3.95133L 3.64896 4.62655L -1.11866e-05 4.62655L 0.0416589 4.15139Z"/>
        <path id="path22_fill" d="M 0.00224212 0.608546C -0.00471706 0.531106 0.00455355 0.453067 0.0294713 0.379422C 0.0543891 0.305776 0.0944142 0.238146 0.146956 0.180864C 0.199498 0.123581 0.263413 0.0779001 0.334611 0.0467574C 0.40581 0.0156147 0.482725 -0.00031354 0.560428 -1.08644e-06C 0.708397 0.0174177 0.844817 0.0885892 0.943823 0.199994C 1.04283 0.311399 1.09751 0.455292 1.09751 0.604373C 1.09751 0.753455 1.04283 0.897347 0.943823 1.00875C 0.844817 1.12016 0.708397 1.19133 0.560428 1.20875C 0.483487 1.20896 0.407334 1.19325 0.336747 1.16261C 0.26616 1.13197 0.202651 1.08707 0.150236 1.03071C 0.0978207 0.974346 0.0576091 0.907749 0.0321408 0.8351C 0.00667258 0.762451 -0.0035001 0.68532 0.00224212 0.608546Z"/>
        <path id="path23_fill" d="M 4.14881 0.0250023L 4.14881 5.65189C 4.14881 6.0687 4.14881 6.53552 4.14881 6.85229L 3.45735 6.85229L 3.45735 6.01868C 3.31515 6.30133 3.0955 6.53766 2.82406 6.70004C 2.55262 6.86241 2.24059 6.94414 1.92446 6.93566C 0.841431 6.93566 5.08482e-06 5.98535 5.08482e-06 4.5682C 5.08482e-06 3.01768 0.916397 2.06736 2.01608 2.06736C 2.28531 2.05157 2.55379 2.10912 2.79292 2.23389C 3.03205 2.35867 3.23287 2.54599 3.37404 2.77593L 3.37404 -5.08797e-06L 4.14881 0.0250023ZM 3.31571 4.09304C 3.32949 3.97395 3.32949 3.85368 3.31571 3.73459C 3.26373 3.46004 3.11829 3.21198 2.90412 3.03264C 2.68996 2.8533 2.42032 2.75374 2.14107 2.75092C 1.30797 2.75092 0.791431 3.51785 0.791431 4.55153C 0.791431 5.58521 1.233 6.26877 2.11608 6.26877C 2.40145 6.26427 2.67654 6.1615 2.89505 5.97777C 3.11355 5.79405 3.26211 5.54061 3.31571 5.2601C 3.33037 5.13828 3.33037 5.01513 3.31571 4.89331L 3.31571 4.09304Z"/>
        <path id="path24_fill" d="M 0.786068 4.51819C 0.764007 4.72956 0.78809 4.9432 0.856671 5.14434C 0.925253 5.34547 1.03669 5.5293 1.18327 5.6831C 1.32984 5.8369 1.50805 5.95699 1.70558 6.03509C 1.90311 6.11318 2.11525 6.14741 2.3273 6.1354C 2.75392 6.14859 3.17807 6.06598 3.56861 5.89364L 3.71025 6.50218C 3.2402 6.70653 2.73134 6.80609 2.219 6.79395C 1.9139 6.80755 1.60944 6.75518 1.32641 6.64039C 1.04337 6.5256 0.788396 6.35109 0.578862 6.12877C 0.369328 5.90645 0.210175 5.64154 0.112228 5.35209C 0.0142816 5.06264 -0.0201471 4.75546 0.0112948 4.4515C 0.0112948 3.05103 0.84439 1.95066 2.11903 1.95066C 2.38891 1.96125 2.65364 2.02784 2.89645 2.14621C 3.13925 2.26458 3.35481 2.43215 3.52948 2.63828C 3.70415 2.84441 3.83411 3.08462 3.91112 3.34365C 3.98813 3.60269 4.0105 3.87492 3.97682 4.14306C 3.98436 4.27355 3.98436 4.40436 3.97682 4.53485L 0.786068 4.51819ZM 3.17705 3.90964C 3.17705 3.36779 2.96046 2.53418 2.04405 2.53418C 1.12765 2.53418 0.852724 3.32611 0.794408 3.90964L 3.17705 3.90964ZM 3.36867 0.0250125L 2.25233 1.37546L 1.66915 1.37546L 2.50225 5.08797e-06L 3.36867 0.0250125Z"/>
        <path id="path25_fill" d="M 3.53332 4.61196C 3.1288 4.79809 2.68712 4.88934 2.24201 4.87873C 1.93397 4.88832 1.62741 4.83227 1.34265 4.71431C 1.0579 4.59635 0.801479 4.41918 0.590355 4.19452C 0.379232 3.96987 0.218224 3.70286 0.118052 3.41123C 0.0178797 3.11959 -0.0191753 2.80998 0.00931298 2.50292C -0.0157031 2.17523 0.0289786 1.84596 0.1404 1.53679C 0.251821 1.22763 0.427443 0.945607 0.65572 0.709312C 0.883997 0.473017 1.15972 0.28782 1.46474 0.165917C 1.76976 0.044014 2.09714 -0.0118278 2.42529 0.00208439C 2.81616 -0.00195819 3.20309 0.0805924 3.55831 0.243827L 3.37503 0.894056C 3.08445 0.734907 2.75634 0.657146 2.42529 0.668977C 1.99074 0.711461 1.58756 0.914243 1.29422 1.23784C 1.00088 1.56143 0.838392 1.98267 0.838392 2.41956C 0.838392 2.85644 1.00088 3.27769 1.29422 3.60129C 1.58756 3.92488 1.99074 4.12767 2.42529 4.17015C 2.77202 4.17019 3.11411 4.09032 3.42501 3.93674L 3.53332 4.61196Z"/>
        <path id="path26_fill" d="M 4.39702 2.39246C 4.43352 2.7072 4.40294 3.02611 4.3073 3.32815C 4.21167 3.6302 4.05315 3.90853 3.84219 4.14482C 3.63124 4.38111 3.37265 4.56999 3.08344 4.69901C 2.79423 4.82802 2.48098 4.89424 2.16433 4.8933C 1.86211 4.89007 1.56382 4.82406 1.28842 4.69946C 1.01302 4.57487 0.766479 4.3944 0.564419 4.16949C 0.362359 3.94458 0.209206 3.68012 0.114616 3.39289C 0.0200262 3.10565 -0.0139292 2.80189 0.0149281 2.50084C -0.021482 2.1868 0.00887217 1.86861 0.104014 1.56714C 0.199156 1.26568 0.356938 0.98775 0.566987 0.751593C 0.777036 0.515437 1.03461 0.326396 1.32282 0.196865C 1.61103 0.0673338 1.92336 0.00024266 2.23931 -1.52639e-06C 2.54263 0.000814406 2.84241 0.065123 3.11941 0.188788C 3.39641 0.312452 3.6445 0.492742 3.84771 0.718064C 4.05092 0.943385 4.20477 1.20875 4.29937 1.49712C 4.39397 1.78549 4.42724 2.09047 4.39702 2.39246ZM 0.831372 2.44249C 0.831372 3.4595 1.39786 4.23475 2.19764 4.23475C 2.99741 4.23475 3.56393 3.47617 3.56393 2.42582C 3.56393 1.63388 3.18071 0.63354 2.21431 0.63354C 1.24792 0.63354 0.831372 1.55052 0.831372 2.43415L 0.831372 2.44249Z"/>
        <path id="path27_fill" d="M -3.05089e-06 -6.10556e-06L 0.833093 -6.10556e-06L 0.833093 6.82729L -3.05089e-06 6.82729L -3.05089e-06 -6.10556e-06Z"/>
        <path id="path28_fill" d="M 0.786059 2.56753C 0.763998 2.7789 0.788106 2.99255 0.856687 3.19368C 0.925269 3.39482 1.03669 3.57865 1.18326 3.73245C 1.32983 3.88625 1.50807 4.00634 1.7056 4.08443C 1.90313 4.16253 2.11524 4.19676 2.32729 4.18474C 2.75391 4.19794 3.17806 4.11532 3.5686 3.94299L 3.71024 4.55152C 3.24019 4.75587 2.73133 4.85543 2.21899 4.84329C 1.91389 4.8569 1.60946 4.80452 1.32642 4.68974C 1.04339 4.57495 0.788387 4.40044 0.578853 4.17812C 0.369319 3.95579 0.210166 3.69089 0.112219 3.40144C 0.0142725 3.11199 -0.0201563 2.80481 0.0112857 2.50084C 0.0112857 1.10037 0.844381 2.03519e-06 2.11902 2.03519e-06C 2.3889 0.0105969 2.65363 0.0771879 2.89644 0.195558C 3.13924 0.313928 3.35482 0.481497 3.5295 0.687628C 3.70417 0.893759 3.83413 1.13396 3.91114 1.393C 3.98814 1.65204 4.01051 1.92426 3.97683 2.19241C 3.98438 2.3229 3.98438 2.4537 3.97683 2.58419L 0.786059 2.56753ZM 3.17707 1.95898C 3.17707 1.41714 2.96045 0.583529 2.04404 0.583529C 1.12764 0.583529 0.852715 1.37546 0.794398 1.95898L 3.17707 1.95898Z"/>
        <path id="path29_fill" d="M 0.016664 4.15139L 2.04942 1.40881C 2.24103 1.15872 2.43263 0.933651 2.63257 0.683567L 0.199946 0.683567L 0.199946 -2.03519e-06L 3.60731 -2.03519e-06L 3.60731 0.525178L 1.59954 3.22608C 1.41626 3.4845 1.22465 3.71791 1.0247 3.95966L 3.64895 3.95966L 3.64895 4.63488L 1.11866e-05 4.63488L 0.016664 4.15139Z"/>
        <path id="path30_fill" d="M 0.00224008 0.608546C -0.00471909 0.531106 0.00455152 0.453067 0.0294693 0.379422C 0.054387 0.305776 0.0944121 0.238146 0.146954 0.180864C 0.199496 0.123581 0.263411 0.0779001 0.334609 0.0467574C 0.405808 0.0156147 0.482723 -0.00031354 0.560426 -1.08644e-06C 0.708395 0.0174177 0.844815 0.0885892 0.943821 0.199994C 1.04283 0.311399 1.09751 0.455292 1.09751 0.604373C 1.09751 0.753455 1.04283 0.897347 0.943821 1.00875C 0.844815 1.12016 0.708395 1.19133 0.560426 1.20875C 0.483485 1.20896 0.407332 1.19325 0.336745 1.16261C 0.266158 1.13197 0.202649 1.08707 0.150234 1.03071C 0.0978187 0.974346 0.0576325 0.907749 0.0321642 0.8351C 0.00669597 0.762451 -0.00350213 0.68532 0.00224008 0.608546Z"/>
        <path id="path31_fill" d="M 1.08302 2.30911L 1.01696e-06 1.90799e-07L 47.3782 1.80894"/>
        <path id="path32_fill" d="M 1.08302 0.500168L 1.01696e-06 1.63388L 47.3782 0.0416803L 47.3782 2.54398e-07"/>
        <path id="path33_fill" d="M 10.9219 0L -2.28817e-06 1.54218L 2.57427 14.4382L 2.89918 14.4382L 49.9525 16.1971L 10.9219 0Z"/>
        <path id="path34_fill" d="M 11.4301 17.1724L 50.1691 -3.81598e-07L 2.79087 1.5922L 2.28817e-06 15.5552L 11.4301 17.1724Z"/>
        <path id="path35_fill" d="M 46.2868 2.31744L 47.3699 5.72397e-07L -5.5933e-06 1.80894"/>
        <path id="path36_fill" d="M 46.2868 0.508503L 47.3699 1.63388L -5.5933e-06 0.0416806L -5.5933e-06 6.35996e-07"/>
        <path id="path37_fill" d="M 39.0222 -3.72654e-10L -5.5933e-06 16.1971L 47.045 14.4382L 47.3699 14.4382L 49.9441 1.54218L 39.0222 -3.72654e-10Z"/>
        <path id="path38_fill" d="M 50.1607 15.5552L 47.3699 1.5922L -5.5933e-06 0L 38.7307 17.1724L 50.1607 15.5552Z"/>
    </defs>
</svg>