<svg width="51" height="64" viewBox="0 0 51 64" version="1.1" xmlns="http://www.w3.org/2000/svg" xmlns:xlink="http://www.w3.org/1999/xlink">
<title>Seat</title>
<desc>Seat Icon</desc>
<g id="Canvas" transform="translate(-19521 -6737)">
<g id="Vector">
<use xlink:href="#path0_fill" transform="translate(19521 6737)" fill="#FFFFFF"/>
</g>
</g>
<defs>
<path id="path0_fill" d="M 48.7336 37.7114L 48.7002 37.7025C 48.7002 37.7025 48.4202 37.6283 48.0114 37.6099C 47.8581 37.5922 47.7307 37.5507 47.559 37.5507L 31.7864 37.5507C 31.7864 37.5507 31.6065 37.5534 31.3449 37.5943C 31.1895 37.5888 31.0294 37.5902 30.8577 37.6058L 17.6769 38.7579L 15.3693 32.4211L 35.8028 32.4211C 35.8028 32.4211 38.8701 32.4211 38.8701 29.3559L 38.8701 29.3205C 38.8701 29.3205 38.8701 26.2546 35.8028 26.2546L 13.1236 26.2546L 9.21624 15.527C 9.21624 15.527 9.20943 15.5093 9.20193 15.4916L 9.20193 4.59852C 9.20193 4.59852 9.20193 0 4.60097 0C 4.60097 0 0 -3.24659e-07 0 4.59852L 0 16.0757C 0 16.0757 0.00545048 16.8472 0.31954 17.7561C 0.375408 18.0489 0.451035 18.3512 0.568904 18.6739L 11.2507 48.0026C 11.2507 48.0026 11.5205 48.7263 12.1289 49.4746C 12.7768 50.425 13.8942 51.2509 15.8428 51.2509L 25.63 51.2509L 25.63 59.1291L 13.033 59.1291C 13.033 59.1291 10.7322 59.1291 10.7322 61.4284L 10.7322 61.7014C 10.7322 61.7014 10.7322 64 13.033 64L 44.3009 64C 44.3009 64 46.601 64 46.601 61.7014L 46.601 61.4284C 46.601 61.4284 46.601 59.1291 44.3009 59.1291L 31.7039 59.1291L 31.7039 51.2509L 44.0958 51.2509C 44.0958 51.2509 44.1197 51.2502 44.1585 51.2489L 45.8046 51.2489C 46.7278 51.2931 48.3323 51.0542 48.8848 48.9912L 50.9036 41.465C 50.9036 41.465 51.6967 38.5046 48.7336 37.7114Z"/>
</defs>
</svg>
