<svg width="74" height="59" viewBox="0 0 74 59" version="1.1" xmlns="http://www.w3.org/2000/svg" xmlns:xlink="http://www.w3.org/1999/xlink">
<title>Plane Takeoff</title>
<desc>Plane Takeoff Icon</desc>
<g id="Canvas" transform="translate(-19842 -6743)">
<g id="Vector">
<use xlink:href="#path0_fill" transform="translate(19842 6743)" fill="#FFFFFF"/>
</g>
</g>
<defs>
<path id="path0_fill" d="M 8.5 30.546C 8.5 30.546 22.034 35.389 25.548 34.447C 35.072 31.894 65.409 23.767 66.099 23.583C 69.824 22.587 71.878 18.75 71.355 16.791C 70.835 14.832 67.244 12.502 63.412 13.523C 63.145 13.593 55.863 15.539 46.618 18.007L 18.676 0.132987C 18.304 -0.0860127 17.738 -0.0280132 17.414 0.258987L 14.712 2.90799C 14.392 3.19699 14.336 3.71699 14.594 4.06299L 28.737 22.779C 24.639 23.873 20.739 24.914 17.395 25.806L 5.445 18.393C 5.098 18.172 4.572 18.229 4.275 18.519L 2.5 20.252C 2.206 20.543 2.142 21.063 2.361 21.413C 2.361 21.413 1.747 20.895 8.5 30.546ZM 0 54.126L 0 58.126L 73.666 58.126L 73.666 54.126L 0 54.126Z"/>
</defs>
</svg>
