<svg width="40" height="40" viewBox="0 0 40 40" version="1.1" xmlns="http://www.w3.org/2000/svg" xmlns:xlink="http://www.w3.org/1999/xlink">
<title>Twitter</title>
<desc>Created using Figma</desc>
<g id="Canvas" transform="translate(-19108 -8480)">
<g id="Twitter">
<use xlink:href="#path0_fill" transform="translate(19108 8480)" fill="#FFFFFF"/>
</g>
</g>
<defs>
<path id="path0_fill" fill-rule="evenodd" d="M 20 40C 8.9543 40 0 31.0457 0 20C 0 8.9543 8.9543 0 20 0C 31.0457 0 40 8.9543 40 20C 40 31.0457 31.0457 40 20 40ZM 22.7781 12.1887C 21.032 12.8243 19.9284 14.4626 20.0541 16.2563L 20.096 16.9483L 19.3975 16.8636C 16.8551 16.5387 14.634 15.4371 12.7481 13.5869L 11.8261 12.6689L 11.5886 13.3468C 11.0857 14.858 11.407 16.454 12.4548 17.5274C 13.0135 18.1205 12.8878 18.2053 11.9239 17.8522C 11.5886 17.7392 11.2953 17.6545 11.2674 17.6968C 11.1696 17.7957 11.5048 19.0809 11.7702 19.5894C 12.1335 20.2955 12.8738 20.9876 13.6841 21.3972L 14.3686 21.722L 13.5583 21.7361C 12.776 21.7361 12.7481 21.7502 12.8319 22.0468C 13.1113 22.9649 14.2149 23.9394 15.4442 24.3631L 16.3103 24.6597L 15.556 25.1116C 14.4384 25.7613 13.1253 26.1285 11.8122 26.1567C 11.1835 26.1709 10.6667 26.2274 10.6667 26.2697C 10.6667 26.411 12.3709 27.2019 13.3628 27.5126C 16.3382 28.4306 19.8725 28.0351 22.5267 26.4674C 24.4126 25.3517 26.2984 23.1343 27.1785 20.9876C 27.6535 19.8436 28.1284 17.7533 28.1284 16.7506C 28.1284 16.1009 28.1703 16.0162 28.9526 15.2394C 29.4136 14.7874 29.8467 14.2931 29.9305 14.1519C 30.0702 13.8835 30.0562 13.8835 29.3438 14.1236C 28.1564 14.5473 27.9887 14.4908 28.5754 13.8553C 29.0085 13.4033 29.5254 12.5842 29.5254 12.3441C 29.5254 12.3017 29.3158 12.3723 29.0783 12.4994C 28.8269 12.6407 28.2681 12.8525 27.849 12.9796L 27.0947 13.2197L 26.4102 12.7537C 26.033 12.4994 25.5022 12.217 25.2228 12.1322C 24.5103 11.9345 23.4207 11.9627 22.7781 12.1887Z"/>
</defs>
</svg>
