<svg width="40" height="40" viewBox="0 0 40 40" version="1.1" xmlns="http://www.w3.org/2000/svg" xmlns:xlink="http://www.w3.org/1999/xlink">
<title>YouTube</title>
<desc>YouTube</desc><g id="Canvas" transform="translate(-19058 -8480)">
<g id="YouTube">
<use xlink:href="#path0_fill" transform="translate(19058 8480)" fill="#FFFFFF"/>
</g>
</g>
<defs>
<path id="path0_fill" fill-rule="evenodd" d="M 20 40C 8.9543 40 0 31.0457 0 20C 0 8.9543 8.9543 0 20 0C 31.0457 0 40 8.9543 40 20C 40 31.0457 31.0457 40 20 40ZM 14.1745 8L 12.6891 8L 14.4446 13.3354L 14.4446 16.8364L 15.9197 16.8364L 15.9197 13.1702L 17.6361 8L 16.1363 8L 15.2253 11.5322L 15.1326 11.5322L 14.1745 8ZM 18.2718 10.602C 18.6243 10.3028 19.0993 10.1529 19.6933 10.1529C 20.2349 10.1529 20.6801 10.3108 21.0273 10.6266C 21.3719 10.9417 21.5455 11.3484 21.5455 11.8454L 21.5455 15.2129C 21.5455 15.7702 21.3758 16.2068 21.0378 16.5246C 20.6957 16.8417 20.2298 17.001 19.6333 17.001C 19.0616 17.001 18.6021 16.8364 18.2575 16.5101C 17.9155 16.1823 17.7419 15.7411 17.7419 15.1872L 17.7418 11.8088C 17.7418 11.3026 17.9181 10.9006 18.2718 10.602ZM 19.2311 15.7251C 19.3238 15.8232 19.457 15.8717 19.6306 15.8717C 19.8082 15.8717 19.9478 15.8213 20.0535 15.7224C 20.158 15.6215 20.2102 15.4843 20.2102 15.3104L 20.2102 11.759C 20.2102 11.6165 20.1566 11.5017 20.0496 11.4134C 19.9426 11.3259 19.8029 11.2827 19.6306 11.2827C 19.4701 11.2827 19.3409 11.3259 19.2403 11.4134C 19.1411 11.5017 19.0902 11.6164 19.0902 11.759L 19.0902 15.3104C 19.0902 15.4889 19.1385 15.6262 19.2311 15.7251ZM 26.3464 16.8364L 25.0358 16.8364L 25.0358 16.1166C 24.7969 16.3813 24.5451 16.585 24.2826 16.7229C 24.0216 16.8616 23.7683 16.9307 23.5228 16.9307C 23.2175 16.9307 22.9916 16.8331 22.8377 16.6394C 22.6849 16.445 22.6079 16.1545 22.6079 15.7656L 22.6079 10.3174L 23.9158 10.3174L 23.9158 15.3151C 23.9158 15.4697 23.9459 15.5811 24.0007 15.6501C 24.0542 15.7192 24.1442 15.7542 24.267 15.7542C 24.3622 15.7542 24.485 15.7079 24.6324 15.6169C 24.7786 15.5254 24.9144 15.4085 25.0357 15.2653L 25.0357 10.3174L 26.3464 10.3174L 26.3464 16.8364ZM 19.9962 19.319C 19.9962 19.3182 28.0498 19.331 29.0052 20.2855C 29.9646 21.2416 29.975 25.9612 29.975 25.9885C 29.975 25.9885 29.9672 30.7327 29.0052 31.6921C 28.0498 32.6461 19.9962 32.6667 19.9962 32.6667C 19.9962 32.6667 11.9437 32.6461 10.9857 31.6921C 10.0277 30.7361 10.025 26.0243 10.025 25.9885C 10.025 25.9613 10.0276 21.2416 10.9857 20.2855C 11.9438 19.331 19.9962 19.3182 19.9962 19.319ZM 14.6104 23.066L 14.6104 29.9226L 13.2986 29.9226L 13.2986 23.066L 11.9424 23.066L 11.9424 21.901L 15.9666 21.901L 15.9666 23.066L 14.6104 23.066ZM 18.6385 29.9226L 18.6385 29.2718C 18.4219 29.5133 18.2 29.6957 17.9663 29.8205C 17.734 29.9479 17.5094 30.0089 17.2901 30.0089C 17.0199 30.0089 16.8202 29.9226 16.6819 29.7449C 16.5474 29.5677 16.4783 29.3057 16.4783 28.9521L 16.4783 24.0041L 17.6413 24.0041L 17.6413 28.5434C 17.6413 28.684 17.6661 28.7848 17.7132 28.8472C 17.7641 28.9109 17.8437 28.9414 17.952 28.9414C 18.0369 28.9414 18.1465 28.8996 18.2771 28.8167C 18.4089 28.7331 18.5277 28.6282 18.6386 28.5002L 18.6386 24.0042L 19.8016 24.0042L 19.8016 29.9226L 18.6385 29.9226ZM 23.7488 29.6633C 23.5674 29.8874 23.3025 29.9975 22.9579 29.9975C 22.7294 29.9975 22.5271 29.9558 22.3495 29.8696C 22.1721 29.7834 22.0036 29.6506 21.8523 29.4689L 21.8523 29.9226L 20.6762 29.9226L 20.6762 21.901L 21.8523 21.901L 21.8523 24.4837C 22.0102 24.3046 22.176 24.1659 22.3509 24.0731C 22.5283 23.9789 22.7073 23.9324 22.8873 23.9324C 23.2567 23.9324 23.5374 24.0585 23.7306 24.3093C 23.9264 24.5621 24.023 24.9316 24.023 25.4159L 24.023 28.6999C 24.0229 29.1185 23.9314 29.4396 23.7488 29.6633ZM 25.832 27.1051L 25.832 28.2203C 25.832 28.5321 25.8699 28.7477 25.9455 28.8691C 26.0238 28.9892 26.1544 29.0483 26.3398 29.0483C 26.5328 29.0483 26.6674 28.9972 26.7444 28.895C 26.8201 28.7928 26.8605 28.5686 26.8605 28.2203L 26.8605 27.9503L 28.0575 27.9503L 28.0575 28.2542C 28.0575 28.8613 27.9125 29.3183 27.6189 29.6268C 27.3292 29.932 26.8931 30.0838 26.3136 30.0838C 25.7928 30.0838 25.3816 29.9226 25.0827 29.5962C 24.7837 29.2719 24.6323 28.8246 24.6323 28.2541L 24.6323 25.5964C 24.6323 25.0849 24.7981 24.6643 25.127 24.3418C 25.4559 24.0187 25.8788 23.8575 26.401 23.8575C 26.9335 23.8575 27.3434 24.0074 27.6293 24.3066C 27.9151 24.6051 28.0574 25.0351 28.0574 25.5964L 28.0574 27.105L 25.832 27.1051ZM 22.3391 24.8719C 22.4956 24.8719 22.6171 24.9236 22.702 25.0258C 22.7841 25.1292 22.8246 25.2811 22.8246 25.4809L 22.8246 28.5367C 22.8246 28.727 22.7894 28.8611 22.7229 28.944C 22.6564 29.029 22.5519 29.0708 22.4096 29.0708C 22.3105 29.0708 22.2178 29.0481 22.129 29.0064C 22.039 28.9652 21.9462 28.8929 21.8523 28.7974L 21.8523 25.1101C 21.9318 25.0285 22.0115 24.9681 22.0924 24.9296C 22.1734 24.8898 22.2555 24.8719 22.3391 24.8719ZM 26.3516 24.8931C 26.1663 24.8931 26.0331 24.9455 25.9521 25.0563C 25.8712 25.1597 25.8321 25.3389 25.8321 25.5864L 25.8321 26.1842L 26.8607 26.1842L 26.8607 25.5864C 26.8607 25.3389 26.8189 25.1599 26.7379 25.0563C 26.6596 24.9455 26.5278 24.8931 26.3516 24.8931Z"/>
</defs>
</svg>
